<svg xmlns="http://www.w3.org/2000/svg" width="399" height="268" viewBox="0 0 399 268"><rect width="100%" height="100%" fill="#00000"/><path fill="#cdced0" d="m85.5 126.13-3.45-.61q.4-2.76 1.54-4.84 1.14-2.08 2.85-3.47 1.71-1.39 3.92-2.09t4.76-.7q2.65 0 4.78.75 2.13.76 3.64 2.1 1.51 1.33 2.32 3.14.81 1.8.81 3.89 0 1.83-.41 3.22-.41 1.39-1.18 2.43-.77 1.03-1.91 1.75-1.14.71-2.57 1.19 3.45 1.08 5.14 3.31 1.7 2.23 1.7 5.59 0 2.86-1.06 5.06-1.06 2.2-2.86 3.7-1.8 1.5-4.18 2.27-2.37.76-5.02.76-2.89 0-5.03-.66-2.15-.66-3.74-1.96-1.59-1.3-2.7-3.18-1.12-1.88-1.91-4.35l2.89-1.19q1.14-.47 2.13-.25 1 .23 1.45 1.07.47.93 1.04 1.83.57.9 1.37 1.61.79.7 1.87 1.13 1.07.44 2.55.44 1.67 0 2.92-.54 1.24-.54 2.08-1.42.83-.87 1.24-1.95.41-1.07.41-2.16 0-1.37-.29-2.5t-1.22-1.92q-.92-.8-2.66-1.25-1.74-.45-4.65-.45v-4.66q2.41-.03 4-.45 1.59-.43 2.53-1.18.94-.76 1.31-1.82.37-1.06.37-2.33 0-2.7-1.51-4.11-1.51-1.4-4.02-1.4-1.17 0-2.15.33t-1.76.93q-.78.59-1.31 1.39-.53.79-.8 1.75-.45 1.22-1.18 1.61-.73.4-2.05.19Zm33.18.21q0 3.21 1.65 4.89 1.66 1.68 4.71 1.68 1.59 0 2.83-.5 1.25-.5 2.09-1.38.85-.87 1.29-2.06.44-1.2.44-2.58 0-1.56-.48-2.79t-1.35-2.08q-.88-.85-2.08-1.3-1.21-.45-2.64-.45-1.48 0-2.67.49-1.2.49-2.05 1.36-.84.88-1.29 2.09-.45 1.2-.45 2.63Zm-3.21 26.82 11.9-14.87q.45-.55.85-1.08.39-.53.76-1.06-1.32.85-2.91 1.28-1.59.44-3.34.44-1.99 0-3.9-.69-1.9-.69-3.39-2.08-1.48-1.39-2.4-3.44-.91-2.06-.91-4.81 0-2.57.95-4.83.96-2.25 2.68-3.95 1.72-1.69 4.13-2.67 2.42-.98 5.33-.98 2.94 0 5.29.92 2.34.93 4 2.6 1.66 1.67 2.54 4 .89 2.34.89 5.12 0 1.77-.3 3.36-.31 1.59-.86 3.06-.56 1.47-1.36 2.88-.79 1.4-1.77 2.78l-8.77 12.51q-.45.64-1.35 1.07-.91.44-2.05.44h-6.01Zm33.95-26.82q0 3.21 1.65 4.89 1.66 1.68 4.71 1.68 1.59 0 2.83-.5 1.25-.5 2.09-1.38.85-.87 1.29-2.06.44-1.2.44-2.58 0-1.56-.48-2.79t-1.35-2.08q-.88-.85-2.08-1.3-1.21-.45-2.64-.45-1.48 0-2.67.49-1.2.49-2.05 1.36-.84.88-1.29 2.09-.45 1.2-.45 2.63Zm-3.21 26.82 11.9-14.87q.45-.55.85-1.08.39-.53.76-1.06-1.32.85-2.91 1.28-1.59.44-3.34.44-1.99 0-3.9-.69-1.9-.69-3.39-2.08-1.48-1.39-2.4-3.44-.91-2.06-.91-4.81 0-2.57.95-4.83.96-2.25 2.68-3.95 1.72-1.69 4.13-2.67 2.42-.98 5.33-.98 2.94 0 5.29.92 2.34.93 4 2.6 1.66 1.67 2.54 4 .89 2.34.89 5.12 0 1.77-.3 3.36-.31 1.59-.86 3.06-.56 1.47-1.36 2.88-.79 1.4-1.77 2.78l-8.77 12.51q-.45.64-1.35 1.07-.91.44-2.05.44h-6.01Zm65.96-8.77-3.47 3.42-8.99-8.99-9.06 9.04-3.47-3.42 9.06-9.09-8.64-8.64 3.45-3.44 8.64 8.64 8.58-8.59 3.5 3.45-8.61 8.61 9.01 9.01Zm31.9 2.68h9.84q1.06 0 1.68.59.62.6.62 1.58v3.92h-26.29v-2.17q0-.67.28-1.39.28-.73.89-1.32l11.63-11.66q1.46-1.48 2.61-2.83 1.16-1.35 1.92-2.68.77-1.32 1.18-2.69.41-1.36.41-2.87 0-1.38-.39-2.43-.4-1.04-1.13-1.76-.73-.72-1.75-1.07-1.02-.36-2.29-.36-1.17 0-2.16.33-.99.33-1.76.93-.77.59-1.3 1.39-.53.79-.8 1.75-.45 1.22-1.16 1.61-.72.4-2.07.19l-3.44-.61q.39-2.76 1.53-4.84 1.14-2.08 2.85-3.47 1.71-1.39 3.92-2.09 2.22-.7 4.76-.7 2.65 0 4.85.78 2.2.78 3.76 2.21 1.57 1.43 2.44 3.45.87 2.01.87 4.48 0 2.12-.62 3.92-.62 1.8-1.67 3.44-1.04 1.65-2.45 3.18-1.4 1.54-2.94 3.13l-8.64 8.82q1.25-.37 2.48-.57 1.23-.19 2.34-.19Zm39.78-32.23-11.37 13.91-1.32 1.65q1.11-.56 2.4-.86 1.28-.31 2.76-.31 2.18 0 4.23.72 2.05.71 3.62 2.16 1.56 1.44 2.52 3.59.95 2.14.95 5 0 2.68-.98 5.03-.98 2.34-2.76 4.09-1.77 1.75-4.28 2.76-2.5 1-5.52 1-3.08 0-5.51-.98-2.44-.98-4.16-2.74-1.73-1.76-2.64-4.24-.92-2.48-.92-5.5 0-2.7 1.1-5.55 1.1-2.85 3.41-5.92l9.14-12.27q.48-.64 1.39-1.09.92-.45 2.11-.45h5.83Zm-9.88 33.39q1.56 0 2.87-.53t2.25-1.48q.94-.96 1.47-2.24.53-1.29.53-2.8 0-1.64-.5-2.95-.5-1.31-1.43-2.23-.93-.91-2.23-1.39-1.29-.48-2.86-.48-1.56 0-2.83.53-1.28.53-2.18 1.47-.9.94-1.4 2.23-.5 1.29-.5 2.77 0 1.59.43 2.9.44 1.31 1.3 2.24.86.93 2.13 1.44 1.28.52 2.95.52Zm30.79.24q1.62 0 2.83-.46 1.22-.47 2.06-1.29.83-.82 1.26-1.96.42-1.14.42-2.47 0-3.15-1.75-4.76-1.75-1.62-4.82-1.62-3.08 0-4.82 1.62-1.75 1.61-1.75 4.76 0 1.33.42 2.47.42 1.14 1.26 1.96.83.82 2.05 1.29 1.22.46 2.84.46Zm0-29.12q-1.46 0-2.52.45t-1.76 1.2q-.7.76-1.03 1.74-.34.98-.34 2.06 0 1.14.28 2.22.28 1.07.94 1.91.67.83 1.75 1.33 1.09.51 2.68.51t2.68-.51q1.08-.5 1.74-1.33.67-.84.95-1.91.27-1.08.27-2.22 0-1.08-.34-2.06-.35-.98-1.03-1.74-.69-.75-1.75-1.2-1.06-.45-2.52-.45Zm6.46 13.83q3.5 1.14 5.17 3.48 1.67 2.35 1.67 5.74 0 2.55-.97 4.61-.96 2.07-2.71 3.53-1.75 1.45-4.2 2.25-2.45.79-5.42.79-2.97 0-5.42-.79-2.45-.8-4.2-2.25-1.75-1.46-2.72-3.53-.96-2.06-.96-4.61 0-3.39 1.67-5.74 1.66-2.34 5.16-3.48-2.78-1.17-4.17-3.31-1.39-2.15-1.39-5.17 0-2.17.89-4.06.88-1.88 2.47-3.27 1.59-1.39 3.81-2.17 2.21-.78 4.86-.78 2.65 0 4.86.78 2.21.78 3.8 2.17 1.59 1.39 2.48 3.27.89 1.89.89 4.06 0 3.02-1.39 5.17-1.39 2.14-4.18 3.31Z"/></svg>