<svg xmlns="http://www.w3.org/2000/svg" width="1239" height="629" viewBox="0 0 1239 629"><rect width="100%" height="100%" fill="#cdced0"/><path fill="#cdced0" d="M300.855 353.78h18.98v13.5h-58.4v-13.5h21.39v-61.54q0-3.65.22-7.52l-15.19 12.7q-1.31 1.02-2.59 1.28-1.28.25-2.41.03-1.13-.22-2.01-.76-.87-.55-1.31-1.21l-5.69-7.81 32.19-27.37h14.82v92.2Zm72.63-3.29h27.09q2.92 0 4.63 1.64 1.72 1.65 1.72 4.35v10.8h-72.42v-5.99q0-1.82.77-3.83.76-2.01 2.44-3.61l32.05-32.12q4.01-4.09 7.19-7.81 3.18-3.73 5.29-7.38 2.12-3.65 3.25-7.41 1.13-3.76 1.13-7.92 0-3.79-1.09-6.68-1.1-2.88-3.11-4.85-2-1.97-4.81-2.96-2.81-.98-6.32-.98-3.21 0-5.95.91-2.73.91-4.85 2.56-2.12 1.64-3.58 3.83-1.46 2.19-2.19 4.82-1.24 3.35-3.21 4.45-1.97 1.09-5.69.51l-9.49-1.68q1.09-7.59 4.23-13.32 3.14-5.73 7.85-9.56 4.71-3.84 10.8-5.77 6.1-1.94 13.1-1.94 7.3 0 13.36 2.16 6.06 2.15 10.37 6.09 4.31 3.95 6.72 9.49 2.4 5.55 2.4 12.34 0 5.84-1.71 10.8-1.72 4.97-4.6 9.49-2.88 4.53-6.75 8.76-3.87 4.24-8.11 8.62l-23.79 24.31q3.43-1.02 6.82-1.57 3.4-.55 6.46-.55Zm57.53-57.67-9.49-1.68q1.09-7.59 4.23-13.32 3.14-5.73 7.85-9.56 4.71-3.84 10.8-5.77 6.1-1.94 13.11-1.94 7.3 0 13.17 2.08 5.88 2.09 10.04 5.77 4.16 3.69 6.39 8.65 2.22 4.97 2.22 10.73 0 5.04-1.13 8.87-1.13 3.83-3.25 6.68-2.11 2.85-5.25 4.82-3.14 1.97-7.08 3.29 9.49 2.99 14.16 9.12 4.67 6.13 4.67 15.4 0 7.89-2.92 13.95t-7.88 10.18q-4.97 4.12-11.5 6.24t-13.83 2.12q-7.96 0-13.87-1.83-5.92-1.82-10.3-5.4-4.38-3.58-7.44-8.76-3.07-5.18-5.26-11.97l7.96-3.29q3.14-1.31 5.87-.69 2.74.62 3.98 2.96 1.32 2.55 2.89 5.03 1.57 2.49 3.76 4.42 2.19 1.93 5.14 3.14 2.96 1.2 7.05 1.2 4.6 0 8.03-1.49 3.43-1.5 5.73-3.91 2.3-2.41 3.43-5.36 1.13-2.96 1.13-5.95 0-3.8-.8-6.9-.81-3.1-3.36-5.29-2.56-2.19-7.34-3.43-4.78-1.25-12.81-1.25v-12.84q6.64-.08 11.02-1.24 4.38-1.17 6.97-3.25 2.6-2.08 3.62-5t1.02-6.43q0-7.44-4.16-11.31t-11.1-3.87q-3.21 0-5.91.91t-4.85 2.56q-2.16 1.64-3.62 3.83-1.46 2.19-2.19 4.82-1.24 3.35-3.25 4.45-2 1.09-5.65.51Zm91.39.58q0 8.84 4.56 13.47 4.57 4.64 12.96 4.64 4.38 0 7.81-1.39 3.43-1.39 5.77-3.79 2.34-2.41 3.54-5.7 1.21-3.28 1.21-7.08 0-4.31-1.32-7.7-1.31-3.4-3.72-5.73-2.41-2.34-5.73-3.58-3.32-1.24-7.27-1.24-4.08 0-7.37 1.35-3.28 1.35-5.62 3.76-2.34 2.41-3.58 5.73-1.24 3.32-1.24 7.26Zm-8.83 73.88 32.78-40.95q1.24-1.54 2.33-3 1.1-1.46 2.12-2.92-3.65 2.34-8.03 3.54-4.38 1.21-9.2 1.21-5.47 0-10.73-1.9-5.26-1.9-9.34-5.73-4.09-3.83-6.61-9.49-2.52-5.66-2.52-13.25 0-7.08 2.63-13.28 2.63-6.21 7.37-10.88 4.75-4.67 11.39-7.37 6.64-2.71 14.67-2.71 8.11 0 14.57 2.56 6.46 2.55 11.02 7.15 4.56 4.6 7.01 11.03 2.44 6.42 2.44 14.08 0 4.9-.84 9.28-.84 4.38-2.37 8.43-1.53 4.05-3.72 7.92-2.19 3.87-4.89 7.66l-24.17 34.46q-1.24 1.75-3.72 2.96-2.48 1.2-5.62 1.2h-16.57Zm181.7-24.16-9.57 9.41-24.74-24.74-24.97 24.89-9.56-9.42 24.96-25.04-23.79-23.79 9.49-9.49 23.79 23.79 23.66-23.65 9.63 9.49-23.72 23.73 24.82 24.82Zm112.78-81.4-31.32 38.33-3.65 4.52q3.07-1.53 6.61-2.37 3.54-.84 7.63-.84 5.99 0 11.64 1.97 5.66 1.97 9.97 5.95 4.3 3.98 6.93 9.89 2.63 5.92 2.63 13.8 0 7.37-2.7 13.83t-7.59 11.28q-4.89 4.82-11.79 7.59-6.9 2.78-15.22 2.78-8.47 0-15.19-2.7-6.71-2.7-11.46-7.56-4.74-4.85-7.26-11.68-2.52-6.82-2.52-15.15 0-7.44 3.03-15.29 3.03-7.85 9.38-16.31l25.19-33.8q1.31-1.76 3.83-3t5.8-1.24h16.06Zm-27.23 91.98q4.31 0 7.92-1.46 3.62-1.46 6.21-4.09 2.59-2.62 4.05-6.16t1.46-7.71q0-4.52-1.39-8.14-1.38-3.61-3.94-6.13-2.55-2.52-6.13-3.83t-7.89-1.31q-4.3 0-7.81 1.46-3.5 1.46-5.98 4.05-2.48 2.59-3.87 6.13-1.39 3.54-1.39 7.63 0 4.38 1.21 7.99 1.2 3.61 3.57 6.17 2.38 2.55 5.88 3.98 3.5 1.42 8.1 1.42Zm87.02-3.21h27.08q2.92 0 4.64 1.64 1.71 1.65 1.71 4.35v10.8h-72.41v-5.99q0-1.82.76-3.83.77-2.01 2.45-3.61l32.05-32.12q4.01-4.09 7.19-7.81 3.17-3.73 5.29-7.38t3.25-7.41q1.13-3.76 1.13-7.92 0-3.79-1.1-6.68-1.09-2.88-3.1-4.85-2.01-1.97-4.82-2.96-2.81-.98-6.31-.98-3.21 0-5.95.91t-4.86 2.56q-2.11 1.64-3.57 3.83-1.46 2.19-2.19 4.82-1.24 3.35-3.21 4.45-1.98 1.09-5.7.51l-9.49-1.68q1.1-7.59 4.24-13.32 3.13-5.73 7.84-9.56 4.71-3.84 10.81-5.77 6.09-1.94 13.1-1.94 7.3 0 13.36 2.16 6.06 2.15 10.37 6.09 4.3 3.95 6.71 9.49 2.41 5.55 2.41 12.34 0 5.84-1.72 10.8-1.71 4.97-4.59 9.49-2.89 4.53-6.76 8.76-3.87 4.24-8.1 8.62l-23.8 24.31q3.43-1.02 6.83-1.57 3.39-.55 6.46-.55Zm64.24-57.09q0 8.84 4.56 13.47 4.56 4.64 12.96 4.64 4.38 0 7.81-1.39 3.43-1.39 5.77-3.79 2.33-2.41 3.54-5.7 1.2-3.28 1.2-7.08 0-4.31-1.31-7.7-1.32-3.4-3.73-5.73-2.41-2.34-5.73-3.58-3.32-1.24-7.26-1.24-4.09 0-7.37 1.35-3.29 1.35-5.62 3.76-2.34 2.41-3.58 5.73-1.24 3.32-1.24 7.26Zm-8.83 73.88 32.77-40.95q1.24-1.54 2.34-3 1.09-1.46 2.11-2.92-3.64 2.34-8.02 3.54-4.38 1.21-9.2 1.21-5.48 0-10.73-1.9-5.26-1.9-9.35-5.73-4.09-3.83-6.6-9.49-2.52-5.66-2.52-13.25 0-7.08 2.63-13.28 2.62-6.21 7.37-10.88 4.74-4.67 11.39-7.37 6.64-2.71 14.67-2.71 8.1 0 14.56 2.56 6.46 2.55 11.03 7.15 4.56 4.6 7 11.03 2.45 6.42 2.45 14.08 0 4.9-.84 9.28-.84 4.38-2.37 8.43-1.54 4.05-3.73 7.92t-4.89 7.66l-24.16 34.46q-1.24 1.75-3.72 2.96-2.48 1.2-5.62 1.2h-16.57Z"/></svg>